<svg width="310" height="200" viewBox="0 0 310 200" fill="none" xmlns="http://www.w3.org/2000/svg">
<path d="M25 131H285V152H25V131Z" fill="#24E9B5"/>
<rect x="25" y="49" width="260" height="21" fill="#24E9B5"/>
<rect y="90" width="310" height="21" fill="#24E9B5"/>
<circle cx="155" cy="100" r="100" fill="#24E9B5"/>
<circle cx="155" cy="100" r="80" fill="#00A5FE"/>
<path d="M153.031 38L93 68.375V132.625L153.031 163V90.1354L126.559 103.979V123.063C126.618 123.641 126.618 124.234 126.559 124.812C125.951 127.078 123.37 129 120.653 130.599C115.916 133.396 110.305 133.25 107.86 130.021C105.421 126.792 107.027 121.526 111.794 118.729C114.062 117.271 116.891 116.651 119.673 117V72.474C119.673 71.6719 120.464 71.1615 121.007 70.8698L153.031 53.625V38ZM157.969 38V70.0938C161.359 70.25 164.702 70.9271 167.82 72.1094C169.656 72.1239 171.475 71.799 173.159 71.1558C174.844 70.5126 176.357 69.5653 177.601 68.375C177.09 67.731 176.747 66.995 176.597 66.22C176.448 65.445 176.495 64.6504 176.736 63.8935C176.976 63.1366 177.405 62.4362 177.99 61.8429C178.574 61.2496 179.301 60.7781 180.118 60.4625C180.934 60.1469 181.82 59.995 182.711 60.0179C183.602 60.0407 184.477 60.2376 185.271 60.5945C186.065 60.9513 186.76 61.4591 187.305 62.0814C187.849 62.7036 188.231 63.4247 188.421 64.1927L188.445 64.224C188.671 65.1309 188.623 66.0741 188.308 66.9599C187.992 67.8457 187.42 68.6434 186.646 69.2736C185.873 69.9038 184.926 70.3448 183.9 70.5526C182.874 70.7604 181.804 70.7279 180.796 70.4583C178.788 72.5573 176.119 74.0937 173.136 74.8854C175.144 76.2552 176.922 77.8854 178.399 79.7188C179.966 79.3973 181.614 79.6311 182.988 80.3698C187.524 82.901 186.342 89 181.11 90.0417C175.877 91.0833 171.813 86.0313 174.672 82.026C174.79 81.8698 174.92 81.7135 175.056 81.5573C172.877 78.9158 169.953 76.8223 166.574 75.4844C163.863 74.3863 160.946 73.735 157.969 73.5625V94.4479C163.019 94.7604 165.387 97.0156 167.153 98.7917C168.494 100.125 169.256 100.823 170.567 100.885C172.475 100.979 173.922 100.927 175.327 100.885C177.09 100.795 178.858 100.834 180.613 101C186.165 100.911 188.126 99.8229 190.093 98.6771C192.063 97.4045 194.356 96.5766 196.773 96.2656C196.935 95.7818 197.173 95.3207 197.482 94.8958C197.666 94.6432 197.873 94.4046 198.102 94.1823C198.238 94.0521 198.379 93.9531 198.515 93.8385C197.303 89.7316 197.303 85.4195 198.515 81.3125L198.444 81.2604C197.415 80.4187 196.751 79.2864 196.567 78.059C196.384 76.8316 196.692 75.5862 197.439 74.5379C198.186 73.4897 199.325 72.7045 200.659 72.3178C201.992 71.9312 203.437 71.9674 204.744 72.4203C206.051 72.8732 207.137 73.7143 207.815 74.7983C208.493 75.8823 208.721 77.1411 208.458 78.3573C208.196 79.5736 207.46 80.6708 206.378 81.4595C205.296 82.2482 203.935 82.6789 202.532 82.6771H202.195C201.376 85.8958 201.376 89.2344 202.195 92.4531H202.567C203.501 92.4542 204.421 92.6465 205.256 93.015C206.091 93.3835 206.817 93.918 207.377 94.5764C207.938 95.2348 208.317 95.9991 208.485 96.8089C208.653 97.6186 208.606 98.4518 208.346 99.2426C208.087 100.033 207.622 100.76 206.99 101.366C206.357 101.971 205.574 102.438 204.701 102.731C203.828 103.024 202.891 103.134 201.962 103.052C201.033 102.97 200.138 102.699 199.348 102.26L199.07 102.089C198.141 101.513 197.419 100.714 196.991 99.7865C195.245 100.055 193.597 100.687 192.184 101.63C190.9 102.421 189.504 103.061 188.032 103.531C192.503 106.422 198.498 111.865 201.02 115.505C201.513 115.392 202.021 115.334 202.532 115.333C203.468 115.331 204.392 115.52 205.23 115.887C206.069 116.254 206.799 116.788 207.362 117.448C207.926 118.107 208.307 118.873 208.477 119.685C208.646 120.497 208.599 121.332 208.338 122.125C208.077 122.918 207.611 123.646 206.975 124.252C206.34 124.859 205.553 125.326 204.677 125.617C203.801 125.908 202.86 126.015 201.929 125.93C200.998 125.844 200.102 125.569 199.313 125.125L199.035 124.969C197.777 124.183 196.91 123.001 196.613 121.667C196.316 120.332 196.612 118.949 197.44 117.802C197.532 117.672 197.633 117.547 197.742 117.427C195.113 113.391 185.775 105.552 183.212 104.995C180.688 104.42 178.074 104.214 175.475 104.385C174.057 104.427 172.445 104.479 170.36 104.385C167.318 104.245 165.736 102.651 164.2 101.109C162.664 99.5677 161.188 98.1927 157.969 97.9271V134.354C158.836 134.209 159.681 133.973 160.485 133.651C160.594 133.595 160.708 133.547 160.827 133.51C164.135 132.12 169.22 128.771 173.207 120.766C172.003 119.982 171.172 118.831 170.877 117.537C170.582 116.243 170.844 114.899 171.612 113.766C172.146 112.973 172.904 112.317 173.812 111.861C174.72 111.405 175.747 111.165 176.791 111.165C177.836 111.165 178.863 111.404 179.772 111.86C180.68 112.316 181.438 112.972 181.972 113.764C182.505 114.556 182.796 115.457 182.816 116.378C182.835 117.3 182.583 118.21 182.083 119.019C181.583 119.828 180.853 120.509 179.965 120.994C179.077 121.479 178.061 121.752 177.016 121.786C175.099 125.97 172.219 129.758 168.559 132.911C170.033 133.18 171.424 133.723 172.64 134.505C173.247 134.99 174.011 135.296 174.825 135.38C176.626 135.211 178.391 134.822 180.07 134.224C179.909 133.091 180.167 131.941 180.805 130.947C181.443 129.953 182.427 129.167 183.612 128.705C184.797 128.243 186.119 128.13 187.382 128.383C188.645 128.636 189.782 129.242 190.625 130.109V130.083C191.372 130.854 191.854 131.798 192.013 132.803C192.172 133.808 192.001 134.832 191.521 135.754C191.041 136.676 190.271 137.457 189.303 138.006C188.335 138.554 187.21 138.847 186.059 138.849C184.476 138.861 182.951 138.324 181.812 137.354C179.613 138.161 177.287 138.665 174.914 138.849H174.619C173.091 138.747 171.632 138.249 170.425 137.417C168.878 136.495 167.413 135.62 162.145 136.792C160.833 137.353 159.419 137.705 157.969 137.833V163L218 132.625V68.375L157.969 38ZM182.503 63.5417C182.066 63.549 181.642 63.678 181.292 63.9101C180.943 64.1422 180.685 64.4658 180.556 64.8345C180.427 65.2033 180.434 65.5986 180.574 65.964C180.715 66.3295 180.983 66.6465 181.34 66.8698L181.446 66.9219C182.409 67.4427 183.679 67.1979 184.305 66.3594V66.349C184.503 66.0697 184.613 65.7484 184.622 65.4189C184.631 65.0893 184.539 64.7638 184.356 64.4764C184.173 64.1891 183.905 63.9506 183.581 63.7861C183.257 63.6216 182.889 63.5372 182.515 63.5417H182.503ZM153.031 73.5833L126.453 87.4792V97.8958L153.031 84V73.5833ZM202.555 75.5625C202.206 75.5653 201.864 75.6455 201.559 75.7957C201.255 75.9459 200.998 76.1612 200.813 76.4219V76.4323C200.531 76.8286 200.432 77.3054 200.538 77.764C200.643 78.2226 200.945 78.6279 201.38 78.8958L201.457 78.9479C201.924 79.2038 202.487 79.2883 203.025 79.1832C203.562 79.0781 204.032 78.7918 204.333 78.3854C204.534 78.1068 204.646 77.7853 204.657 77.4551C204.668 77.1249 204.578 76.7982 204.396 76.5096C204.214 76.2209 203.947 75.981 203.623 75.8152C203.299 75.6494 202.93 75.5639 202.555 75.5677V75.5625ZM179.657 83.0365C179.327 83.0533 179.007 83.139 178.722 83.2867C178.438 83.4343 178.197 83.6395 178.021 83.8854C177.828 84.1631 177.722 84.4806 177.714 84.8059C177.705 85.1312 177.794 85.4527 177.971 85.7381C178.149 86.0234 178.408 86.2624 178.724 86.4309C179.039 86.5995 179.4 86.6916 179.769 86.6979C182.616 86.6979 182.503 82.8958 179.651 83.0365H179.657ZM202.555 95.9375C202.207 95.9398 201.865 96.0192 201.56 96.1684C201.256 96.3177 200.999 96.532 200.813 96.7917C200.526 97.1876 200.424 97.666 200.527 98.127C200.63 98.5879 200.932 98.9958 201.368 99.2656L201.457 99.3177C201.925 99.5694 202.486 99.6504 203.021 99.5435C203.555 99.4365 204.022 99.15 204.321 98.7448C204.519 98.4667 204.628 98.1468 204.638 97.8187C204.648 97.4905 204.557 97.166 204.376 96.8792C204.195 96.5924 203.93 96.3537 203.609 96.188C203.287 96.0224 202.921 95.9358 202.549 95.9375H202.555ZM176.715 114.656C176.367 114.666 176.026 114.754 175.726 114.91C175.426 115.067 175.175 115.288 174.997 115.552C174.856 115.757 174.763 115.985 174.723 116.221C174.682 116.458 174.695 116.7 174.76 116.932C174.855 117.268 175.056 117.573 175.34 117.813C175.623 118.052 175.978 118.216 176.362 118.285C176.747 118.354 177.146 118.326 177.513 118.203C177.88 118.081 178.2 117.87 178.437 117.593C178.673 117.317 178.816 116.988 178.849 116.643C178.882 116.298 178.804 115.952 178.623 115.645C178.442 115.337 178.167 115.082 177.828 114.907C177.49 114.732 177.102 114.645 176.709 114.656H176.715ZM202.555 118.766C202.207 118.768 201.865 118.847 201.56 118.997C201.256 119.146 200.999 119.36 200.813 119.62V119.63C200.532 120.026 200.434 120.501 200.537 120.959C200.64 121.417 200.937 121.823 201.368 122.094L201.457 122.146C201.923 122.399 202.483 122.481 203.018 122.376C203.553 122.271 204.02 121.987 204.321 121.583C204.52 121.305 204.631 120.985 204.642 120.656C204.652 120.327 204.562 120.001 204.381 119.714C204.2 119.426 203.934 119.187 203.612 119.021C203.289 118.855 202.922 118.769 202.549 118.771L202.555 118.766ZM186 131.724V131.734C185.516 131.739 185.05 131.894 184.683 132.172C184.358 132.416 184.126 132.741 184.019 133.105C183.911 133.469 183.933 133.853 184.081 134.205C184.23 134.558 184.497 134.862 184.848 135.075C185.198 135.289 185.615 135.403 186.041 135.401C186.54 135.404 187.023 135.247 187.4 134.958C187.606 134.802 187.775 134.611 187.896 134.396C188.018 134.181 188.09 133.948 188.108 133.708C188.13 133.457 188.093 133.204 187.999 132.965C187.906 132.727 187.757 132.508 187.563 132.322C187.369 132.136 187.134 131.988 186.872 131.886C186.61 131.784 186.327 131.731 186.041 131.729C186.027 131.729 186.014 131.729 186 131.729V131.724Z" fill="#24E9B5"/>
</svg>
