<svg width="109" height="106" viewBox="0 0 109 106" fill="none" xmlns="http://www.w3.org/2000/svg">
<path d="M106.281 25.4898C105.663 23.0736 104.453 20.8707 102.773 19.1014C101.092 17.3321 98.9991 16.0585 96.7038 15.4082C88.2512 13 54.2857 13 54.2857 13C54.2857 13 20.3202 13 11.8676 15.4082C9.57235 16.0585 7.47964 17.3321 5.7989 19.1014C4.11816 20.8707 2.90835 23.0736 2.29055 25.4898C0.71226 34.5644 -0.053641 43.7748 0.00291745 53C-0.053641 62.2252 0.71226 71.4357 2.29055 80.5102C2.90835 82.9264 4.11816 85.1293 5.7989 86.8986C7.47964 88.6679 9.57235 89.9415 11.8676 90.5918C20.3202 93 54.2857 93 54.2857 93C54.2857 93 88.2512 93 96.7038 90.5918C98.9991 89.9415 101.092 88.6679 102.773 86.8986C104.453 85.1293 105.663 82.9264 106.281 80.5102C107.859 71.4357 108.625 62.2252 108.569 53C108.625 43.7748 107.859 34.5644 106.281 25.4898V25.4898ZM43.4292 70.1429V35.8571L71.6174 53L43.4292 70.1429Z" fill="#00A4FF"/>
<ellipse cx="58.5" cy="52.5" rx="33.5" ry="28.5" fill="#25EAB3"/>
<path d="M98.9958 28.9286C98.4552 26.8144 97.3966 24.8868 95.9259 23.3387C94.4553 21.7906 92.6242 20.6762 90.6159 20.1071C83.2198 18 53.5 18 53.5 18C53.5 18 23.7802 18 16.3841 20.1071C14.3758 20.6762 12.5447 21.7906 11.074 23.3387C9.60339 24.8868 8.54481 26.8144 8.00423 28.9286C6.62323 36.8688 5.95306 44.9279 6.00255 53C5.95306 61.0721 6.62323 69.1312 8.00423 77.0714C8.54481 79.1856 9.60339 81.1132 11.074 82.6613C12.5447 84.2094 14.3758 85.3238 16.3841 85.8929C23.7802 88 53.5 88 53.5 88C53.5 88 83.2198 88 90.6159 85.8929C92.6242 85.3238 94.4553 84.2094 95.9259 82.6613C97.3966 81.1132 98.4552 79.1856 98.9958 77.0714C100.377 69.1312 101.047 61.0721 100.997 53C101.047 44.9279 100.377 36.8688 98.9958 28.9286ZM44.0005 68V38L68.6652 53L44.0005 68Z" fill="#25EAB3"/>
<path d="M44.2873 77.35C39.1073 77.35 34.5806 76.3 30.7073 74.2C26.7873 72.1467 23.7773 69.2533 21.6773 65.52C19.5773 61.7867 18.5273 57.5167 18.5273 52.71C18.5273 47.95 19.6006 43.7033 21.7473 39.97C23.8473 36.2367 26.8573 33.2967 30.7773 31.15C34.6506 29.05 39.154 28 44.2873 28H63.8173L63.8173 77.35H44.2873ZM45.3373 40.11C41.324 40.11 38.174 41.2067 35.8873 43.4C33.6006 45.5933 32.4573 48.6967 32.4573 52.71C32.4573 56.77 33.6006 59.8967 35.8873 62.09C38.174 64.33 41.324 65.45 45.3373 65.45H50.0973L50.0973 40.11H45.3373Z" fill="#00A4FF"/>
<path d="M81.1386 52.01C84.0319 52.6633 86.3186 54.11 87.9986 56.35C89.7252 58.5433 90.5886 61.0633 90.5886 63.91C90.5886 68.11 89.1419 71.4 86.2486 73.78C83.3552 76.16 79.2952 77.35 74.0686 77.35H49.6386V28H73.2986C78.3386 28 82.2819 29.12 85.1286 31.36C88.0219 33.6 89.4686 36.75 89.4686 40.81C89.4686 43.7033 88.6986 46.13 87.1586 48.09C85.6652 50.0033 83.6586 51.31 81.1386 52.01ZM63.3586 47.6H70.2886C73.7419 47.6 75.4686 46.1767 75.4686 43.33C75.4686 40.39 73.7419 38.92 70.2886 38.92H63.3586V47.6ZM71.3386 66.29C74.7919 66.29 76.5186 64.8433 76.5186 61.95C76.5186 60.4567 76.0519 59.3133 75.1186 58.52C74.2319 57.7267 72.9486 57.33 71.2686 57.33H63.3586V66.29H71.3386Z" fill="#00A4FF"/>
</svg>
